<svg width="415" height="415" viewBox="0 0 415 415" fill="none" xmlns="http://www.w3.org/2000/svg">
<rect width="415" height="415" rx="45" fill="#210A7E"/>
<rect x="54" y="373" width="314" height="16" fill="white"/>
<rect x="36" y="351" width="350" height="12" fill="white"/>
<path d="M105.48 280.976C105.48 281.659 105.075 282 104.264 282H98.888C98.12 282 97.608 281.637 97.352 280.912L93.128 269.136C92.872 268.411 92.36 268.048 91.592 268.048H75.336C74.568 268.048 74.056 268.411 73.8 269.136L69.576 280.912C69.32 281.637 68.808 282 68.04 282H62.664C61.8533 282 61.448 281.659 61.448 280.976L61.576 280.464L78.6 236.176C78.856 235.451 79.368 235.088 80.136 235.088H86.792C87.56 235.088 88.072 235.451 88.328 236.176L105.352 280.464L105.48 280.976ZM84.36 244.496C84.1467 243.899 83.848 243.6 83.464 243.6C83.2933 243.6 83.1227 243.685 82.952 243.856C82.7813 244.027 82.6533 244.24 82.568 244.496L77 260.304L76.872 260.816C76.872 261.499 77.2773 261.84 78.088 261.84H88.84C89.6507 261.84 90.056 261.499 90.056 260.816L89.928 260.304L84.36 244.496ZM127.89 247.632C131.986 247.632 135.164 248.613 137.426 250.576C139.73 252.496 141.287 254.779 142.097 257.424C142.908 260.069 143.314 262.672 143.314 265.232C143.314 267.792 142.908 270.395 142.097 273.04C141.287 275.685 139.73 277.989 137.426 279.952C135.164 281.872 131.986 282.832 127.89 282.832C124.562 282.832 121.788 281.936 119.57 280.144C119.228 279.845 118.908 279.696 118.61 279.696C118.226 279.696 118.034 280.016 118.034 280.656C118.034 281.083 117.906 281.424 117.65 281.68C117.436 281.893 117.116 282 116.69 282H112.85C112.423 282 112.082 281.893 111.826 281.68C111.612 281.424 111.506 281.083 111.506 280.656V236.432C111.506 236.005 111.612 235.685 111.826 235.472C112.082 235.216 112.423 235.088 112.85 235.088H116.69C117.116 235.088 117.436 235.216 117.65 235.472C117.906 235.685 118.034 236.005 118.034 236.432V249.68C118.034 250.064 118.076 250.363 118.162 250.576C118.29 250.789 118.439 250.896 118.61 250.896C118.823 250.896 119.015 250.811 119.186 250.64C121.447 248.635 124.348 247.632 127.89 247.632ZM127.25 276.944C130.535 276.944 132.946 275.813 134.482 273.552C136.06 271.291 136.85 268.517 136.85 265.232C136.85 261.947 136.06 259.173 134.482 256.912C132.946 254.651 130.535 253.52 127.25 253.52C124.007 253.52 121.639 254.651 120.146 256.912C118.695 259.131 117.97 261.904 117.97 265.232C117.97 268.56 118.695 271.355 120.146 273.616C121.639 275.835 124.007 276.944 127.25 276.944ZM166.15 282.832C161.883 282.832 158.512 281.872 156.038 279.952C153.563 277.989 151.856 275.685 150.918 273.04C149.979 270.352 149.51 267.749 149.51 265.232C149.51 262.715 149.979 260.133 150.918 257.488C151.856 254.8 153.563 252.496 156.038 250.576C158.512 248.613 161.883 247.632 166.15 247.632C170.374 247.632 173.723 248.613 176.198 250.576C178.672 252.496 180.379 254.8 181.318 257.488C182.299 260.133 182.79 262.715 182.79 265.232C182.79 267.749 182.299 270.352 181.318 273.04C180.379 275.685 178.672 277.989 176.198 279.952C173.723 281.872 170.374 282.832 166.15 282.832ZM166.15 276.944C169.606 276.944 172.166 275.813 173.83 273.552C175.494 271.291 176.326 268.517 176.326 265.232C176.326 261.947 175.494 259.173 173.83 256.912C172.166 254.651 169.606 253.52 166.15 253.52C162.694 253.52 160.134 254.651 158.47 256.912C156.806 259.173 155.974 261.947 155.974 265.232C155.974 268.517 156.806 271.291 158.47 273.552C160.134 275.813 162.694 276.944 166.15 276.944ZM219.923 249.104C218.6 249.104 217.448 249.531 216.467 250.384C216.168 250.64 216.019 250.939 216.019 251.28C216.019 251.621 216.168 251.941 216.467 252.24C218.088 254.203 218.899 256.613 218.899 259.472C218.899 262.501 218.088 264.891 216.467 266.64C214.888 268.389 213.011 269.605 210.835 270.288C208.659 270.971 206.547 271.312 204.499 271.312C203.006 271.312 201.662 271.184 200.467 270.928C200.296 270.885 200.04 270.864 199.699 270.864C199.4 270.864 199.059 270.928 198.675 271.056C197.95 271.397 197.374 271.781 196.947 272.208C196.52 272.592 196.307 272.997 196.307 273.424C196.307 273.765 196.435 274.064 196.691 274.32C197.032 274.704 197.8 275.003 198.995 275.216C200.232 275.387 201.96 275.579 204.179 275.792C208.36 276.133 211.411 276.517 213.331 276.944C216.318 277.584 218.664 278.672 220.371 280.208C222.078 281.744 222.931 284.005 222.931 286.992C222.931 290.235 221.48 292.731 218.579 294.48C215.678 296.272 211.518 297.168 206.099 297.168C200.424 297.168 196.136 296.443 193.235 294.992C190.334 293.584 188.883 291.259 188.883 288.016C188.883 285.157 190.312 282.832 193.171 281.04C193.555 280.784 193.747 280.549 193.747 280.336C193.747 280.123 193.512 279.888 193.043 279.632C191.123 278.565 190.163 277.072 190.163 275.152C190.163 274.171 190.483 273.232 191.123 272.336C191.806 271.44 192.723 270.608 193.875 269.84C194.302 269.541 194.515 269.243 194.515 268.944C194.515 268.645 194.323 268.368 193.939 268.112C191.336 266.021 190.035 263.141 190.035 259.472C190.035 256.443 190.824 254.053 192.403 252.304C194.024 250.555 195.923 249.339 198.099 248.656C200.318 247.973 202.451 247.632 204.499 247.632C206.206 247.632 207.912 247.867 209.619 248.336C209.747 248.379 209.918 248.4 210.131 248.4C210.686 248.4 211.112 248.165 211.411 247.696C213.544 244.667 216.296 243.152 219.667 243.152C220.35 243.152 221.331 243.28 222.611 243.536C223.336 243.792 223.699 244.304 223.699 245.072V248.592C223.699 249.659 223.336 250.021 222.611 249.68C221.758 249.296 220.862 249.104 219.923 249.104ZM204.499 266C206.675 266 208.51 265.467 210.003 264.4C211.539 263.333 212.307 261.691 212.307 259.472C212.307 257.253 211.539 255.611 210.003 254.544C208.51 253.435 206.675 252.88 204.499 252.88C202.323 252.88 200.488 253.435 198.995 254.544C197.502 255.611 196.755 257.253 196.755 259.472C196.755 261.691 197.502 263.333 198.995 264.4C200.488 265.467 202.323 266 204.499 266ZM207.187 282.064C204.968 281.851 203.304 281.701 202.195 281.616L201.555 281.552C201.256 281.552 200.915 281.616 200.531 281.744C198.611 282.213 197.246 282.917 196.435 283.856C195.667 284.837 195.283 285.84 195.283 286.864C195.283 287.675 195.667 288.443 196.435 289.168C197.246 289.936 198.462 290.555 200.083 291.024C201.747 291.536 203.774 291.792 206.163 291.792C209.278 291.792 211.71 291.323 213.459 290.384C215.208 289.488 216.083 288.251 216.083 286.672C216.083 285.179 215.358 284.112 213.907 283.472C212.456 282.832 210.216 282.363 207.187 282.064ZM257.712 271.888C257.797 273.168 258.01 274.171 258.352 274.896C258.693 275.579 259.418 276.112 260.528 276.496C261.21 276.752 261.552 277.115 261.552 277.584C261.552 277.755 261.488 277.968 261.36 278.224L259.568 281.808C259.226 282.576 258.672 282.853 257.904 282.64C255.429 282.085 253.722 280.869 252.784 278.992C252.57 278.523 252.357 278.288 252.144 278.288C251.93 278.288 251.696 278.459 251.44 278.8C249.221 281.488 245.616 282.832 240.624 282.832C237.594 282.832 235.141 282.299 233.264 281.232C231.429 280.165 230.128 278.885 229.36 277.392C228.592 275.856 228.208 274.384 228.208 272.976C228.208 270.672 228.912 268.603 230.32 266.768C231.77 264.933 233.925 263.653 236.784 262.928C238.746 262.459 241.477 262.096 244.976 261.84C247.365 261.669 249.093 261.499 250.16 261.328C251.013 261.2 251.397 260.688 251.312 259.792C251.098 257.872 250.458 256.336 249.392 255.184C248.368 253.989 246.64 253.392 244.208 253.392C242.629 253.392 241.114 253.733 239.664 254.416C238.256 255.056 237.168 256.187 236.4 257.808C236.016 258.619 235.461 258.896 234.736 258.64L230.832 257.552C230.149 257.339 229.808 256.976 229.808 256.464C229.808 256.336 229.85 256.144 229.936 255.888C230.96 253.413 232.645 251.451 234.992 250C237.338 248.507 240.389 247.76 244.144 247.76C247.813 247.76 250.928 248.72 253.488 250.64C256.048 252.517 257.413 255.248 257.583 258.832C257.626 260.539 257.648 262.821 257.648 265.68C257.69 268.539 257.712 270.608 257.712 271.888ZM241.712 277.328C242.864 277.328 244.122 277.051 245.488 276.496C246.896 275.941 248.133 274.981 249.2 273.616C250.309 272.208 250.992 270.331 251.248 267.984V267.856C251.248 267.429 251.12 267.109 250.864 266.896C250.608 266.64 250.266 266.555 249.84 266.64L247.344 266.896C244.57 267.152 242.309 267.451 240.56 267.792C238.853 268.091 237.381 268.645 236.144 269.456C234.949 270.224 234.352 271.333 234.352 272.784C234.352 274.533 235.12 275.728 236.656 276.368C238.192 277.008 239.877 277.328 241.712 277.328ZM285.702 247.632C289.798 247.632 292.977 248.613 295.238 250.576C297.542 252.496 299.099 254.779 299.91 257.424C300.721 260.069 301.126 262.672 301.126 265.232C301.126 267.792 300.721 270.395 299.91 273.04C299.099 275.685 297.542 277.989 295.238 279.952C292.977 281.872 289.798 282.832 285.702 282.832C282.374 282.832 279.601 281.936 277.382 280.144C277.041 279.845 276.721 279.696 276.422 279.696C276.038 279.696 275.846 280.016 275.846 280.656C275.846 281.083 275.718 281.424 275.462 281.68C275.249 281.893 274.929 282 274.502 282H270.662C270.235 282 269.894 281.893 269.638 281.68C269.425 281.424 269.318 281.083 269.318 280.656V236.432C269.318 236.005 269.425 235.685 269.638 235.472C269.894 235.216 270.235 235.088 270.662 235.088H274.502C274.929 235.088 275.249 235.216 275.462 235.472C275.718 235.685 275.846 236.005 275.846 236.432V249.68C275.846 250.064 275.889 250.363 275.974 250.576C276.102 250.789 276.251 250.896 276.422 250.896C276.635 250.896 276.827 250.811 276.998 250.64C279.259 248.635 282.161 247.632 285.702 247.632ZM285.062 276.944C288.347 276.944 290.758 275.813 292.294 273.552C293.873 271.291 294.662 268.517 294.662 265.232C294.662 261.947 293.873 259.173 292.294 256.912C290.758 254.651 288.347 253.52 285.062 253.52C281.819 253.52 279.451 254.651 277.958 256.912C276.507 259.131 275.782 261.904 275.782 265.232C275.782 268.56 276.507 271.355 277.958 273.616C279.451 275.835 281.819 276.944 285.062 276.944ZM323.962 282.832C319.695 282.832 316.325 281.872 313.85 279.952C311.375 277.989 309.669 275.685 308.73 273.04C307.791 270.352 307.322 267.749 307.322 265.232C307.322 262.715 307.791 260.133 308.73 257.488C309.669 254.8 311.375 252.496 313.85 250.576C316.325 248.613 319.695 247.632 323.962 247.632C328.186 247.632 331.535 248.613 334.01 250.576C336.485 252.496 338.191 254.8 339.13 257.488C340.111 260.133 340.602 262.715 340.602 265.232C340.602 267.749 340.111 270.352 339.13 273.04C338.191 275.685 336.485 277.989 334.01 279.952C331.535 281.872 328.186 282.832 323.962 282.832ZM323.962 276.944C327.418 276.944 329.978 275.813 331.642 273.552C333.306 271.291 334.138 268.517 334.138 265.232C334.138 261.947 333.306 259.173 331.642 256.912C329.978 254.651 327.418 253.52 323.962 253.52C320.506 253.52 317.946 254.651 316.282 256.912C314.618 259.173 313.786 261.947 313.786 265.232C313.786 268.517 314.618 271.291 316.282 273.552C317.946 275.813 320.506 276.944 323.962 276.944ZM363.336 248.464C363.762 248.464 364.082 248.592 364.296 248.848C364.552 249.061 364.68 249.381 364.68 249.808V252.496C364.68 252.923 364.552 253.264 364.296 253.52C364.082 253.733 363.762 253.84 363.336 253.84H359.56C359.133 253.84 358.792 253.968 358.536 254.224C358.322 254.437 358.216 254.757 358.216 255.184V272.272C358.216 273.68 358.386 274.683 358.728 275.28C359.069 275.877 359.688 276.176 360.583 276.176C360.882 276.176 361.501 276.091 362.44 275.92C362.568 275.877 362.717 275.856 362.888 275.856C363.613 275.856 363.976 276.261 363.976 277.072V280.848C363.976 281.701 363.57 282.192 362.76 282.32C361.096 282.661 359.496 282.832 357.96 282.832C355.954 282.832 354.461 282.469 353.48 281.744C352.541 281.019 351.965 280.165 351.752 279.184C351.538 278.203 351.432 276.923 351.432 275.344V255.184C351.432 254.757 351.304 254.437 351.048 254.224C350.834 253.968 350.514 253.84 350.088 253.84H346.632C346.205 253.84 345.864 253.733 345.608 253.52C345.394 253.264 345.288 252.923 345.288 252.496V249.808C345.288 249.381 345.394 249.061 345.608 248.848C345.864 248.592 346.205 248.464 346.632 248.464H350.088C350.514 248.464 350.834 248.357 351.048 248.144C351.304 247.888 351.432 247.547 351.432 247.12V240.272C351.432 239.845 351.538 239.525 351.752 239.312C352.008 239.056 352.349 238.928 352.776 238.928H356.872C357.298 238.928 357.618 239.056 357.832 239.312C358.088 239.525 358.216 239.845 358.216 240.272V247.12C358.216 247.547 358.322 247.888 358.536 248.144C358.792 248.357 359.133 248.464 359.56 248.464H363.336Z" fill="#C4C4C4"/>
<path d="M78.6266 305.898L69.2984 337H64.8922L75.8844 302.875H78.65L78.6266 305.898ZM86.1734 337L76.8453 305.898L76.7984 302.875H79.5875L90.5797 337H86.1734ZM86.1734 324.367V328.07H69.7203V324.367H86.1734ZM115.203 321.039H108.266L108.219 317.406H114.664C115.633 317.406 116.492 317.188 117.242 316.75C117.992 316.312 118.578 315.688 119 314.875C119.437 314.047 119.656 313.062 119.656 311.922C119.656 310.672 119.469 309.656 119.094 308.875C118.734 308.078 118.18 307.5 117.43 307.141C116.695 306.766 115.758 306.578 114.617 306.578H109.18V337H104.867V302.875H114.617C116.086 302.875 117.398 303.055 118.555 303.414C119.711 303.758 120.687 304.305 121.484 305.055C122.297 305.789 122.914 306.727 123.336 307.867C123.758 309.008 123.969 310.375 123.969 311.969C123.969 313.375 123.648 314.648 123.008 315.789C122.383 316.914 121.508 317.836 120.383 318.555C119.258 319.273 117.961 319.734 116.492 319.938L115.203 321.039ZM115.039 337H106.484L108.992 333.32H115.039C116.164 333.32 117.117 333.07 117.898 332.57C118.68 332.07 119.273 331.367 119.68 330.461C120.102 329.539 120.312 328.453 120.312 327.203C120.312 325.938 120.141 324.844 119.797 323.922C119.453 323 118.906 322.289 118.156 321.789C117.406 321.289 116.422 321.039 115.203 321.039H109.648L109.695 317.406H117.195L118.156 318.719C119.562 318.859 120.742 319.328 121.695 320.125C122.664 320.906 123.391 321.906 123.875 323.125C124.375 324.344 124.625 325.688 124.625 327.156C124.625 329.281 124.227 331.078 123.43 332.547C122.648 334 121.539 335.109 120.102 335.875C118.664 336.625 116.977 337 115.039 337ZM162.866 316.984V322.914C162.866 325.32 162.6 327.438 162.069 329.266C161.553 331.078 160.795 332.594 159.795 333.812C158.795 335.031 157.592 335.945 156.186 336.555C154.78 337.164 153.194 337.469 151.428 337.469C149.725 337.469 148.17 337.164 146.764 336.555C145.358 335.945 144.147 335.031 143.131 333.812C142.116 332.594 141.327 331.078 140.764 329.266C140.217 327.438 139.944 325.32 139.944 322.914V316.984C139.944 314.578 140.217 312.469 140.764 310.656C141.311 308.828 142.092 307.305 143.108 306.086C144.123 304.867 145.334 303.953 146.741 303.344C148.147 302.719 149.702 302.406 151.405 302.406C153.17 302.406 154.756 302.719 156.162 303.344C157.584 303.953 158.787 304.867 159.772 306.086C160.772 307.305 161.537 308.828 162.069 310.656C162.6 312.469 162.866 314.578 162.866 316.984ZM158.6 322.914V316.938C158.6 315.062 158.444 313.453 158.131 312.109C157.819 310.75 157.358 309.641 156.748 308.781C156.139 307.922 155.389 307.289 154.498 306.883C153.608 306.461 152.577 306.25 151.405 306.25C150.295 306.25 149.295 306.461 148.405 306.883C147.53 307.289 146.78 307.922 146.155 308.781C145.53 309.641 145.045 310.75 144.702 312.109C144.373 313.453 144.209 315.062 144.209 316.938V322.914C144.209 324.805 144.373 326.43 144.702 327.789C145.045 329.133 145.53 330.242 146.155 331.117C146.795 331.977 147.561 332.617 148.452 333.039C149.342 333.445 150.334 333.648 151.428 333.648C152.6 333.648 153.631 333.445 154.522 333.039C155.428 332.617 156.178 331.977 156.772 331.117C157.381 330.242 157.834 329.133 158.131 327.789C158.444 326.43 158.6 324.805 158.6 322.914ZM200.52 320.008V332.734C200.145 333.234 199.575 333.859 198.809 334.609C198.059 335.359 197.005 336.023 195.645 336.602C194.286 337.18 192.505 337.469 190.302 337.469C188.536 337.469 186.919 337.172 185.45 336.578C183.997 335.984 182.739 335.094 181.677 333.906C180.63 332.703 179.817 331.211 179.239 329.43C178.661 327.633 178.372 325.531 178.372 323.125V316.727C178.372 314.336 178.614 312.242 179.098 310.445C179.583 308.648 180.302 307.156 181.255 305.969C182.223 304.781 183.419 303.891 184.841 303.297C186.278 302.703 187.95 302.406 189.856 302.406C192.059 302.406 193.934 302.82 195.481 303.648C197.028 304.477 198.223 305.672 199.067 307.234C199.927 308.797 200.411 310.672 200.52 312.859H196.208C196.098 311.453 195.802 310.25 195.317 309.25C194.833 308.234 194.145 307.461 193.255 306.93C192.364 306.383 191.231 306.109 189.856 306.109C188.544 306.109 187.434 306.328 186.528 306.766C185.622 307.203 184.88 307.859 184.302 308.734C183.739 309.609 183.325 310.711 183.059 312.039C182.809 313.367 182.684 314.914 182.684 316.68V323.125C182.684 324.938 182.864 326.516 183.223 327.859C183.583 329.203 184.091 330.312 184.747 331.188C185.419 332.062 186.223 332.719 187.161 333.156C188.098 333.578 189.153 333.789 190.325 333.789C191.653 333.789 192.7 333.648 193.466 333.367C194.231 333.086 194.817 332.766 195.223 332.406C195.645 332.047 195.981 331.758 196.231 331.539V323.664H189.973V320.008H200.52ZM228.167 305.898L218.839 337H214.433L225.425 302.875H228.191L228.167 305.898ZM235.714 337L226.386 305.898L226.339 302.875H229.128L240.12 337H235.714ZM235.714 324.367V328.07H219.261V324.367H235.714ZM262.142 337H256.33L256.377 333.32H262.142C264.189 333.32 265.853 332.93 267.134 332.148C268.416 331.352 269.361 330.18 269.97 328.633C270.58 327.07 270.884 325.141 270.884 322.844V317.008C270.884 315.195 270.712 313.633 270.369 312.32C270.025 311.008 269.509 309.93 268.822 309.086C268.134 308.242 267.267 307.617 266.22 307.211C265.173 306.789 263.947 306.578 262.541 306.578H256.212V302.875H262.541C264.462 302.875 266.197 303.18 267.744 303.789C269.291 304.383 270.619 305.281 271.728 306.484C272.837 307.672 273.681 309.148 274.259 310.914C274.853 312.68 275.15 314.727 275.15 317.055V322.844C275.15 325.172 274.853 327.219 274.259 328.984C273.681 330.75 272.83 332.227 271.705 333.414C270.58 334.602 269.212 335.5 267.603 336.109C266.009 336.703 264.189 337 262.142 337ZM258.72 302.875V337H254.408V302.875H258.72ZM313.625 316.984V322.914C313.625 325.32 313.359 327.438 312.828 329.266C312.312 331.078 311.555 332.594 310.555 333.812C309.555 335.031 308.352 335.945 306.945 336.555C305.539 337.164 303.953 337.469 302.188 337.469C300.484 337.469 298.93 337.164 297.523 336.555C296.117 335.945 294.906 335.031 293.891 333.812C292.875 332.594 292.086 331.078 291.523 329.266C290.977 327.438 290.703 325.32 290.703 322.914V316.984C290.703 314.578 290.977 312.469 291.523 310.656C292.07 308.828 292.852 307.305 293.867 306.086C294.883 304.867 296.094 303.953 297.5 303.344C298.906 302.719 300.461 302.406 302.164 302.406C303.93 302.406 305.516 302.719 306.922 303.344C308.344 303.953 309.547 304.867 310.531 306.086C311.531 307.305 312.297 308.828 312.828 310.656C313.359 312.469 313.625 314.578 313.625 316.984ZM309.359 322.914V316.938C309.359 315.062 309.203 313.453 308.891 312.109C308.578 310.75 308.117 309.641 307.508 308.781C306.898 307.922 306.148 307.289 305.258 306.883C304.367 306.461 303.336 306.25 302.164 306.25C301.055 306.25 300.055 306.461 299.164 306.883C298.289 307.289 297.539 307.922 296.914 308.781C296.289 309.641 295.805 310.75 295.461 312.109C295.133 313.453 294.969 315.062 294.969 316.938V322.914C294.969 324.805 295.133 326.43 295.461 327.789C295.805 329.133 296.289 330.242 296.914 331.117C297.555 331.977 298.32 332.617 299.211 333.039C300.102 333.445 301.094 333.648 302.188 333.648C303.359 333.648 304.391 333.445 305.281 333.039C306.188 332.617 306.938 331.977 307.531 331.117C308.141 330.242 308.594 329.133 308.891 327.789C309.203 326.43 309.359 324.805 309.359 322.914ZM344.834 328.375C344.834 327.578 344.741 326.875 344.553 326.266C344.366 325.641 344.038 325.078 343.569 324.578C343.1 324.078 342.444 323.602 341.6 323.148C340.756 322.695 339.686 322.234 338.389 321.766C336.983 321.266 335.709 320.711 334.569 320.102C333.428 319.477 332.452 318.766 331.639 317.969C330.842 317.172 330.225 316.258 329.788 315.227C329.35 314.195 329.131 313.016 329.131 311.688C329.131 310.359 329.358 309.133 329.811 308.008C330.28 306.883 330.936 305.906 331.78 305.078C332.639 304.234 333.67 303.578 334.873 303.109C336.077 302.641 337.42 302.406 338.905 302.406C341.123 302.406 342.991 302.898 344.506 303.883C346.038 304.852 347.194 306.125 347.975 307.703C348.756 309.266 349.147 310.938 349.147 312.719H344.834C344.834 311.438 344.623 310.305 344.202 309.32C343.795 308.32 343.155 307.539 342.28 306.977C341.42 306.398 340.295 306.109 338.905 306.109C337.655 306.109 336.623 306.352 335.811 306.836C335.014 307.32 334.42 307.977 334.03 308.805C333.655 309.633 333.467 310.578 333.467 311.641C333.467 312.359 333.592 313.016 333.842 313.609C334.092 314.188 334.475 314.727 334.991 315.227C335.522 315.727 336.178 316.188 336.959 316.609C337.756 317.031 338.694 317.438 339.772 317.828C341.444 318.375 342.873 318.984 344.061 319.656C345.248 320.328 346.217 321.086 346.967 321.93C347.717 322.758 348.264 323.703 348.608 324.766C348.967 325.812 349.147 327 349.147 328.328C349.147 329.719 348.913 330.977 348.444 332.102C347.991 333.227 347.327 334.188 346.452 334.984C345.577 335.781 344.522 336.398 343.288 336.836C342.053 337.258 340.663 337.469 339.116 337.469C337.772 337.469 336.452 337.25 335.155 336.812C333.873 336.375 332.709 335.719 331.663 334.844C330.616 333.969 329.78 332.891 329.155 331.609C328.53 330.312 328.217 328.812 328.217 327.109H332.53C332.53 328.281 332.702 329.289 333.045 330.133C333.389 330.961 333.866 331.648 334.475 332.195C335.084 332.742 335.78 333.148 336.561 333.414C337.358 333.664 338.209 333.789 339.116 333.789C340.366 333.789 341.413 333.57 342.256 333.133C343.116 332.695 343.756 332.07 344.178 331.258C344.616 330.445 344.834 329.484 344.834 328.375Z" fill="white"/>
<rect x="83" y="75" width="255" height="99" rx="25" fill="#007EA7"/>
<rect x="93" y="86" width="236" height="77" rx="15" fill="white"/>
<circle cx="146" cy="125" r="25" fill="#007EA7"/>
<circle cx="273" cy="125" r="25" fill="#007EA7"/>
<path d="M207.5 43L231.316 84.25H183.684L207.5 43Z" fill="#007EA7"/>
<circle cx="207.5" cy="39.5" r="27.5" fill="#007EA7"/>
<path d="M206.768 203.702C210.029 205.64 210.029 210.36 206.768 212.298L170.555 233.821C167.222 235.802 163 233.4 163 229.523V186.477C163 182.6 167.222 180.198 170.555 182.179L206.768 203.702Z" fill="#007EA7"/>
<path d="M207.232 212.298C203.971 210.36 203.971 205.64 207.232 203.702L243.445 182.179C246.778 180.198 251 182.6 251 186.477V229.523C251 233.4 246.778 235.802 243.445 233.821L207.232 212.298Z" fill="#007EA7"/>
</svg>
