<svg width="255" height="223" viewBox="0 0 255 223" fill="none" xmlns="http://www.w3.org/2000/svg">
<rect y="63" width="255" height="99" rx="25" fill="#007EA7"/>
<rect x="10" y="74" width="236" height="77" rx="15" fill="white"/>
<circle cx="63" cy="113" r="25" fill="#007EA7"/>
<circle cx="190" cy="113" r="25" fill="#007EA7"/>
<path d="M124.5 31L148.316 72.25H100.684L124.5 31Z" fill="#007EA7"/>
<circle cx="124.5" cy="27.5" r="27.5" fill="#007EA7"/>
<path d="M123.768 191.702C127.029 193.64 127.029 198.36 123.768 200.298L87.5545 221.821C84.2216 223.802 80 221.4 80 217.523V174.477C80 170.6 84.2216 168.198 87.5545 170.179L123.768 191.702Z" fill="#007EA7"/>
<path d="M124.232 200.298C120.971 198.36 120.971 193.64 124.232 191.702L160.445 170.179C163.778 168.198 168 170.6 168 174.477V217.523C168 221.4 163.778 223.802 160.445 221.821L124.232 200.298Z" fill="#007EA7"/>
</svg>
