<svg width="319" height="138" viewBox="0 0 319 138" fill="none" xmlns="http://www.w3.org/2000/svg">
<path d="M44.48 72.976C44.48 73.6587 44.0747 74 43.264 74H37.888C37.12 74 36.608 73.6373 36.352 72.912L32.128 61.136C31.872 60.4107 31.36 60.048 30.592 60.048H14.336C13.568 60.048 13.056 60.4107 12.8 61.136L8.576 72.912C8.32 73.6373 7.808 74 7.04 74H1.664C0.853333 74 0.448 73.6587 0.448 72.976L0.576 72.464L17.6 28.176C17.856 27.4507 18.368 27.088 19.136 27.088H25.792C26.56 27.088 27.072 27.4507 27.328 28.176L44.352 72.464L44.48 72.976ZM23.36 36.496C23.1467 35.8987 22.848 35.6 22.464 35.6C22.2933 35.6 22.1227 35.6853 21.952 35.856C21.7813 36.0267 21.6533 36.24 21.568 36.496L16 52.304L15.872 52.816C15.872 53.4987 16.2773 53.84 17.088 53.84H27.84C28.6507 53.84 29.056 53.4987 29.056 52.816L28.928 52.304L23.36 36.496ZM66.8895 39.632C70.9855 39.632 74.1642 40.6133 76.4255 42.576C78.7295 44.496 80.2868 46.7787 81.0975 49.424C81.9082 52.0693 82.3135 54.672 82.3135 57.232C82.3135 59.792 81.9082 62.3947 81.0975 65.04C80.2868 67.6853 78.7295 69.9893 76.4255 71.952C74.1642 73.872 70.9855 74.832 66.8895 74.832C63.5615 74.832 60.7882 73.936 58.5695 72.144C58.2282 71.8453 57.9082 71.696 57.6095 71.696C57.2255 71.696 57.0335 72.016 57.0335 72.656C57.0335 73.0827 56.9055 73.424 56.6495 73.68C56.4362 73.8933 56.1162 74 55.6895 74H51.8495C51.4228 74 51.0815 73.8933 50.8255 73.68C50.6122 73.424 50.5055 73.0827 50.5055 72.656V28.432C50.5055 28.0053 50.6122 27.6853 50.8255 27.472C51.0815 27.216 51.4228 27.088 51.8495 27.088H55.6895C56.1162 27.088 56.4362 27.216 56.6495 27.472C56.9055 27.6853 57.0335 28.0053 57.0335 28.432V41.68C57.0335 42.064 57.0762 42.3627 57.1615 42.576C57.2895 42.7893 57.4388 42.896 57.6095 42.896C57.8228 42.896 58.0148 42.8107 58.1855 42.64C60.4468 40.6347 63.3482 39.632 66.8895 39.632ZM66.2495 68.944C69.5348 68.944 71.9455 67.8133 73.4815 65.552C75.0602 63.2907 75.8495 60.5173 75.8495 57.232C75.8495 53.9467 75.0602 51.1733 73.4815 48.912C71.9455 46.6507 69.5348 45.52 66.2495 45.52C63.0068 45.52 60.6388 46.6507 59.1455 48.912C57.6948 51.1307 56.9695 53.904 56.9695 57.232C56.9695 60.56 57.6948 63.3547 59.1455 65.616C60.6388 67.8347 63.0068 68.944 66.2495 68.944ZM105.15 74.832C100.883 74.832 97.5122 73.872 95.0375 71.952C92.5628 69.9893 90.8562 67.6853 89.9175 65.04C88.9788 62.352 88.5095 59.7493 88.5095 57.232C88.5095 54.7147 88.9788 52.1333 89.9175 49.488C90.8562 46.8 92.5628 44.496 95.0375 42.576C97.5122 40.6133 100.883 39.632 105.15 39.632C109.374 39.632 112.723 40.6133 115.198 42.576C117.672 44.496 119.379 46.8 120.318 49.488C121.299 52.1333 121.79 54.7147 121.79 57.232C121.79 59.7493 121.299 62.352 120.318 65.04C119.379 67.6853 117.672 69.9893 115.198 71.952C112.723 73.872 109.374 74.832 105.15 74.832ZM105.15 68.944C108.606 68.944 111.166 67.8133 112.83 65.552C114.494 63.2907 115.326 60.5173 115.326 57.232C115.326 53.9467 114.494 51.1733 112.83 48.912C111.166 46.6507 108.606 45.52 105.15 45.52C101.694 45.52 99.1335 46.6507 97.4695 48.912C95.8055 51.1733 94.9735 53.9467 94.9735 57.232C94.9735 60.5173 95.8055 63.2907 97.4695 65.552C99.1335 67.8133 101.694 68.944 105.15 68.944ZM158.923 41.104C157.6 41.104 156.448 41.5307 155.467 42.384C155.168 42.64 155.019 42.9387 155.019 43.28C155.019 43.6213 155.168 43.9413 155.467 44.24C157.088 46.2027 157.899 48.6133 157.899 51.472C157.899 54.5013 157.088 56.8907 155.467 58.64C153.888 60.3893 152.011 61.6053 149.835 62.288C147.659 62.9707 145.547 63.312 143.499 63.312C142.006 63.312 140.662 63.184 139.467 62.928C139.296 62.8853 139.04 62.864 138.699 62.864C138.4 62.864 138.059 62.928 137.675 63.056C136.95 63.3973 136.374 63.7813 135.947 64.208C135.52 64.592 135.307 64.9973 135.307 65.424C135.307 65.7653 135.435 66.064 135.691 66.32C136.032 66.704 136.8 67.0027 137.995 67.216C139.232 67.3867 140.96 67.5787 143.179 67.792C147.36 68.1333 150.411 68.5173 152.331 68.944C155.318 69.584 157.664 70.672 159.371 72.208C161.078 73.744 161.931 76.0053 161.931 78.992C161.931 82.2347 160.48 84.7307 157.579 86.48C154.678 88.272 150.518 89.168 145.099 89.168C139.424 89.168 135.136 88.4427 132.235 86.992C129.334 85.584 127.883 83.2587 127.883 80.016C127.883 77.1573 129.312 74.832 132.171 73.04C132.555 72.784 132.747 72.5493 132.747 72.336C132.747 72.1227 132.512 71.888 132.043 71.632C130.123 70.5653 129.163 69.072 129.163 67.152C129.163 66.1707 129.483 65.232 130.123 64.336C130.806 63.44 131.723 62.608 132.875 61.84C133.302 61.5413 133.515 61.2427 133.515 60.944C133.515 60.6453 133.323 60.368 132.939 60.112C130.336 58.0213 129.035 55.1413 129.035 51.472C129.035 48.4427 129.824 46.0533 131.403 44.304C133.024 42.5547 134.923 41.3387 137.099 40.656C139.318 39.9733 141.451 39.632 143.499 39.632C145.206 39.632 146.912 39.8667 148.619 40.336C148.747 40.3787 148.918 40.4 149.131 40.4C149.686 40.4 150.112 40.1653 150.411 39.696C152.544 36.6667 155.296 35.152 158.667 35.152C159.35 35.152 160.331 35.28 161.611 35.536C162.336 35.792 162.699 36.304 162.699 37.072V40.592C162.699 41.6587 162.336 42.0213 161.611 41.68C160.758 41.296 159.862 41.104 158.923 41.104ZM143.499 58C145.675 58 147.51 57.4667 149.003 56.4C150.539 55.3333 151.307 53.6907 151.307 51.472C151.307 49.2533 150.539 47.6107 149.003 46.544C147.51 45.4347 145.675 44.88 143.499 44.88C141.323 44.88 139.488 45.4347 137.995 46.544C136.502 47.6107 135.755 49.2533 135.755 51.472C135.755 53.6907 136.502 55.3333 137.995 56.4C139.488 57.4667 141.323 58 143.499 58ZM146.187 74.064C143.968 73.8507 142.304 73.7013 141.195 73.616L140.555 73.552C140.256 73.552 139.915 73.616 139.531 73.744C137.611 74.2133 136.246 74.9173 135.435 75.856C134.667 76.8373 134.283 77.84 134.283 78.864C134.283 79.6747 134.667 80.4427 135.435 81.168C136.246 81.936 137.462 82.5547 139.083 83.024C140.747 83.536 142.774 83.792 145.163 83.792C148.278 83.792 150.71 83.3227 152.459 82.384C154.208 81.488 155.083 80.2507 155.083 78.672C155.083 77.1787 154.358 76.112 152.907 75.472C151.456 74.832 149.216 74.3627 146.187 74.064ZM196.712 63.888C196.797 65.168 197.01 66.1707 197.352 66.896C197.693 67.5787 198.418 68.112 199.528 68.496C200.21 68.752 200.552 69.1147 200.552 69.584C200.552 69.7547 200.488 69.968 200.36 70.224L198.568 73.808C198.226 74.576 197.672 74.8533 196.904 74.64C194.429 74.0853 192.722 72.8693 191.784 70.992C191.57 70.5227 191.357 70.288 191.144 70.288C190.93 70.288 190.696 70.4587 190.44 70.8C188.221 73.488 184.616 74.832 179.624 74.832C176.594 74.832 174.141 74.2987 172.264 73.232C170.429 72.1653 169.128 70.8853 168.36 69.392C167.592 67.856 167.208 66.384 167.208 64.976C167.208 62.672 167.912 60.6027 169.32 58.768C170.77 56.9333 172.925 55.6533 175.784 54.928C177.746 54.4587 180.477 54.096 183.976 53.84C186.365 53.6693 188.093 53.4987 189.16 53.328C190.013 53.2 190.397 52.688 190.312 51.792C190.098 49.872 189.458 48.336 188.392 47.184C187.368 45.9893 185.64 45.392 183.208 45.392C181.629 45.392 180.114 45.7333 178.664 46.416C177.256 47.056 176.168 48.1867 175.4 49.808C175.016 50.6187 174.461 50.896 173.736 50.64L169.832 49.552C169.149 49.3387 168.808 48.976 168.808 48.464C168.808 48.336 168.85 48.144 168.936 47.888C169.96 45.4133 171.645 43.4507 173.992 42C176.338 40.5067 179.389 39.76 183.144 39.76C186.813 39.76 189.928 40.72 192.488 42.64C195.048 44.5173 196.413 47.248 196.583 50.832C196.626 52.5387 196.648 54.8213 196.648 57.68C196.69 60.5387 196.712 62.608 196.712 63.888ZM180.712 69.328C181.864 69.328 183.122 69.0507 184.488 68.496C185.896 67.9413 187.133 66.9813 188.2 65.616C189.309 64.208 189.992 62.3307 190.248 59.984V59.856C190.248 59.4293 190.12 59.1093 189.864 58.896C189.608 58.64 189.266 58.5547 188.84 58.64L186.344 58.896C183.57 59.152 181.309 59.4507 179.56 59.792C177.853 60.0907 176.381 60.6453 175.144 61.456C173.949 62.224 173.352 63.3333 173.352 64.784C173.352 66.5333 174.12 67.728 175.656 68.368C177.192 69.008 178.877 69.328 180.712 69.328ZM224.702 39.632C228.798 39.632 231.977 40.6133 234.238 42.576C236.542 44.496 238.099 46.7787 238.91 49.424C239.721 52.0693 240.126 54.672 240.126 57.232C240.126 59.792 239.721 62.3947 238.91 65.04C238.099 67.6853 236.542 69.9893 234.238 71.952C231.977 73.872 228.798 74.832 224.702 74.832C221.374 74.832 218.601 73.936 216.382 72.144C216.041 71.8453 215.721 71.696 215.422 71.696C215.038 71.696 214.846 72.016 214.846 72.656C214.846 73.0827 214.718 73.424 214.462 73.68C214.249 73.8933 213.929 74 213.502 74H209.662C209.235 74 208.894 73.8933 208.638 73.68C208.425 73.424 208.318 73.0827 208.318 72.656V28.432C208.318 28.0053 208.425 27.6853 208.638 27.472C208.894 27.216 209.235 27.088 209.662 27.088H213.502C213.929 27.088 214.249 27.216 214.462 27.472C214.718 27.6853 214.846 28.0053 214.846 28.432V41.68C214.846 42.064 214.889 42.3627 214.974 42.576C215.102 42.7893 215.251 42.896 215.422 42.896C215.635 42.896 215.827 42.8107 215.998 42.64C218.259 40.6347 221.161 39.632 224.702 39.632ZM224.062 68.944C227.347 68.944 229.758 67.8133 231.294 65.552C232.873 63.2907 233.662 60.5173 233.662 57.232C233.662 53.9467 232.873 51.1733 231.294 48.912C229.758 46.6507 227.347 45.52 224.062 45.52C220.819 45.52 218.451 46.6507 216.958 48.912C215.507 51.1307 214.782 53.904 214.782 57.232C214.782 60.56 215.507 63.3547 216.958 65.616C218.451 67.8347 220.819 68.944 224.062 68.944ZM262.962 74.832C258.695 74.832 255.325 73.872 252.85 71.952C250.375 69.9893 248.669 67.6853 247.73 65.04C246.791 62.352 246.322 59.7493 246.322 57.232C246.322 54.7147 246.791 52.1333 247.73 49.488C248.669 46.8 250.375 44.496 252.85 42.576C255.325 40.6133 258.695 39.632 262.962 39.632C267.186 39.632 270.535 40.6133 273.01 42.576C275.485 44.496 277.191 46.8 278.13 49.488C279.111 52.1333 279.602 54.7147 279.602 57.232C279.602 59.7493 279.111 62.352 278.13 65.04C277.191 67.6853 275.485 69.9893 273.01 71.952C270.535 73.872 267.186 74.832 262.962 74.832ZM262.962 68.944C266.418 68.944 268.978 67.8133 270.642 65.552C272.306 63.2907 273.138 60.5173 273.138 57.232C273.138 53.9467 272.306 51.1733 270.642 48.912C268.978 46.6507 266.418 45.52 262.962 45.52C259.506 45.52 256.946 46.6507 255.282 48.912C253.618 51.1733 252.786 53.9467 252.786 57.232C252.786 60.5173 253.618 63.2907 255.282 65.552C256.946 67.8133 259.506 68.944 262.962 68.944ZM302.336 40.464C302.762 40.464 303.082 40.592 303.296 40.848C303.552 41.0613 303.68 41.3813 303.68 41.808V44.496C303.68 44.9227 303.552 45.264 303.296 45.52C303.082 45.7333 302.762 45.84 302.336 45.84H298.56C298.133 45.84 297.792 45.968 297.536 46.224C297.322 46.4373 297.216 46.7573 297.216 47.184V64.272C297.216 65.68 297.386 66.6827 297.728 67.28C298.069 67.8773 298.688 68.176 299.583 68.176C299.882 68.176 300.501 68.0907 301.44 67.92C301.568 67.8773 301.717 67.856 301.888 67.856C302.613 67.856 302.976 68.2613 302.976 69.072V72.848C302.976 73.7013 302.57 74.192 301.76 74.32C300.096 74.6613 298.496 74.832 296.96 74.832C294.954 74.832 293.461 74.4693 292.48 73.744C291.541 73.0187 290.965 72.1653 290.752 71.184C290.538 70.2027 290.432 68.9227 290.432 67.344V47.184C290.432 46.7573 290.304 46.4373 290.048 46.224C289.834 45.968 289.514 45.84 289.088 45.84H285.632C285.205 45.84 284.864 45.7333 284.608 45.52C284.394 45.264 284.288 44.9227 284.288 44.496V41.808C284.288 41.3813 284.394 41.0613 284.608 40.848C284.864 40.592 285.205 40.464 285.632 40.464H289.088C289.514 40.464 289.834 40.3573 290.048 40.144C290.304 39.888 290.432 39.5467 290.432 39.12V32.272C290.432 31.8453 290.538 31.5253 290.752 31.312C291.008 31.056 291.349 30.928 291.776 30.928H295.872C296.298 30.928 296.618 31.056 296.832 31.312C297.088 31.5253 297.216 31.8453 297.216 32.272V39.12C297.216 39.5467 297.322 39.888 297.536 40.144C297.792 40.3573 298.133 40.464 298.56 40.464H302.336Z" fill="#C4C4C4"/>
<path d="M17.6266 97.8984L8.29843 129H3.89218L14.8844 94.875H17.65L17.6266 97.8984ZM25.1734 129L15.8453 97.8984L15.7984 94.875H18.5875L29.5797 129H25.1734ZM25.1734 116.367V120.07H8.72031V116.367H25.1734ZM54.2031 113.039H47.2656L47.2187 109.406H53.6641C54.6328 109.406 55.4922 109.188 56.2422 108.75C56.9922 108.312 57.5781 107.688 58 106.875C58.4375 106.047 58.6562 105.062 58.6562 103.922C58.6562 102.672 58.4687 101.656 58.0937 100.875C57.7344 100.078 57.1797 99.5 56.4297 99.1406C55.6953 98.7656 54.7578 98.5781 53.6172 98.5781H48.1797V129H43.8672V94.875H53.6172C55.0859 94.875 56.3984 95.0547 57.5547 95.4141C58.7109 95.7578 59.6875 96.3047 60.4844 97.0547C61.2969 97.7891 61.9141 98.7266 62.3359 99.8672C62.7578 101.008 62.9687 102.375 62.9687 103.969C62.9687 105.375 62.6484 106.648 62.0078 107.789C61.3828 108.914 60.5078 109.836 59.3828 110.555C58.2578 111.273 56.9609 111.734 55.4922 111.938L54.2031 113.039ZM54.0391 129H45.4844L47.9922 125.32H54.0391C55.1641 125.32 56.1172 125.07 56.8984 124.57C57.6797 124.07 58.2734 123.367 58.6797 122.461C59.1016 121.539 59.3125 120.453 59.3125 119.203C59.3125 117.938 59.1406 116.844 58.7969 115.922C58.4531 115 57.9062 114.289 57.1562 113.789C56.4062 113.289 55.4219 113.039 54.2031 113.039H48.6484L48.6953 109.406H56.1953L57.1562 110.719C58.5625 110.859 59.7422 111.328 60.6953 112.125C61.6641 112.906 62.3906 113.906 62.875 115.125C63.375 116.344 63.625 117.688 63.625 119.156C63.625 121.281 63.2266 123.078 62.4297 124.547C61.6484 126 60.5391 127.109 59.1016 127.875C57.6641 128.625 55.9766 129 54.0391 129ZM101.866 108.984V114.914C101.866 117.32 101.6 119.438 101.069 121.266C100.553 123.078 99.7953 124.594 98.7953 125.812C97.7953 127.031 96.5922 127.945 95.1859 128.555C93.7797 129.164 92.1937 129.469 90.4281 129.469C88.725 129.469 87.1703 129.164 85.7641 128.555C84.3578 127.945 83.1469 127.031 82.1312 125.812C81.1156 124.594 80.3266 123.078 79.7641 121.266C79.2172 119.438 78.9437 117.32 78.9437 114.914V108.984C78.9437 106.578 79.2172 104.469 79.7641 102.656C80.3109 100.828 81.0922 99.3047 82.1078 98.0859C83.1234 96.8672 84.3344 95.9531 85.7406 95.3438C87.1469 94.7188 88.7016 94.4062 90.4047 94.4062C92.1703 94.4062 93.7562 94.7188 95.1625 95.3438C96.5844 95.9531 97.7875 96.8672 98.7719 98.0859C99.7719 99.3047 100.537 100.828 101.069 102.656C101.6 104.469 101.866 106.578 101.866 108.984ZM97.6 114.914V108.938C97.6 107.062 97.4437 105.453 97.1312 104.109C96.8187 102.75 96.3578 101.641 95.7484 100.781C95.1391 99.9219 94.3891 99.2891 93.4984 98.8828C92.6078 98.4609 91.5766 98.25 90.4047 98.25C89.2953 98.25 88.2953 98.4609 87.4047 98.8828C86.5297 99.2891 85.7797 99.9219 85.1547 100.781C84.5297 101.641 84.0453 102.75 83.7016 104.109C83.3734 105.453 83.2094 107.062 83.2094 108.938V114.914C83.2094 116.805 83.3734 118.43 83.7016 119.789C84.0453 121.133 84.5297 122.242 85.1547 123.117C85.7953 123.977 86.5609 124.617 87.4516 125.039C88.3422 125.445 89.3344 125.648 90.4281 125.648C91.6 125.648 92.6312 125.445 93.5219 125.039C94.4281 124.617 95.1781 123.977 95.7719 123.117C96.3812 122.242 96.8344 121.133 97.1312 119.789C97.4437 118.43 97.6 116.805 97.6 114.914ZM139.52 112.008V124.734C139.145 125.234 138.575 125.859 137.809 126.609C137.059 127.359 136.005 128.023 134.645 128.602C133.286 129.18 131.505 129.469 129.302 129.469C127.536 129.469 125.919 129.172 124.45 128.578C122.997 127.984 121.739 127.094 120.677 125.906C119.63 124.703 118.817 123.211 118.239 121.43C117.661 119.633 117.372 117.531 117.372 115.125V108.727C117.372 106.336 117.614 104.242 118.098 102.445C118.583 100.648 119.302 99.1562 120.255 97.9688C121.223 96.7812 122.419 95.8906 123.841 95.2969C125.278 94.7031 126.95 94.4062 128.856 94.4062C131.059 94.4062 132.934 94.8203 134.481 95.6484C136.028 96.4766 137.223 97.6719 138.067 99.2344C138.927 100.797 139.411 102.672 139.52 104.859H135.208C135.098 103.453 134.802 102.25 134.317 101.25C133.833 100.234 133.145 99.4609 132.255 98.9297C131.364 98.3828 130.231 98.1094 128.856 98.1094C127.544 98.1094 126.434 98.3281 125.528 98.7656C124.622 99.2031 123.88 99.8594 123.302 100.734C122.739 101.609 122.325 102.711 122.059 104.039C121.809 105.367 121.684 106.914 121.684 108.68V115.125C121.684 116.938 121.864 118.516 122.223 119.859C122.583 121.203 123.091 122.312 123.747 123.188C124.419 124.062 125.223 124.719 126.161 125.156C127.098 125.578 128.153 125.789 129.325 125.789C130.653 125.789 131.7 125.648 132.466 125.367C133.231 125.086 133.817 124.766 134.223 124.406C134.645 124.047 134.981 123.758 135.231 123.539V115.664H128.973V112.008H139.52ZM167.167 97.8984L157.839 129H153.433L164.425 94.875H167.191L167.167 97.8984ZM174.714 129L165.386 97.8984L165.339 94.875H168.128L179.12 129H174.714ZM174.714 116.367V120.07H158.261V116.367H174.714ZM201.142 129H195.33L195.377 125.32H201.142C203.189 125.32 204.853 124.93 206.134 124.148C207.416 123.352 208.361 122.18 208.97 120.633C209.58 119.07 209.884 117.141 209.884 114.844V109.008C209.884 107.195 209.712 105.633 209.369 104.32C209.025 103.008 208.509 101.93 207.822 101.086C207.134 100.242 206.267 99.6172 205.22 99.2109C204.173 98.7891 202.947 98.5781 201.541 98.5781H195.212V94.875H201.541C203.462 94.875 205.197 95.1797 206.744 95.7891C208.291 96.3828 209.619 97.2812 210.728 98.4844C211.837 99.6719 212.681 101.148 213.259 102.914C213.853 104.68 214.15 106.727 214.15 109.055V114.844C214.15 117.172 213.853 119.219 213.259 120.984C212.681 122.75 211.83 124.227 210.705 125.414C209.58 126.602 208.212 127.5 206.603 128.109C205.009 128.703 203.189 129 201.142 129ZM197.72 94.875V129H193.408V94.875H197.72ZM252.625 108.984V114.914C252.625 117.32 252.359 119.438 251.828 121.266C251.312 123.078 250.555 124.594 249.555 125.812C248.555 127.031 247.352 127.945 245.945 128.555C244.539 129.164 242.953 129.469 241.188 129.469C239.484 129.469 237.93 129.164 236.523 128.555C235.117 127.945 233.906 127.031 232.891 125.812C231.875 124.594 231.086 123.078 230.523 121.266C229.977 119.438 229.703 117.32 229.703 114.914V108.984C229.703 106.578 229.977 104.469 230.523 102.656C231.07 100.828 231.852 99.3047 232.867 98.0859C233.883 96.8672 235.094 95.9531 236.5 95.3438C237.906 94.7188 239.461 94.4062 241.164 94.4062C242.93 94.4062 244.516 94.7188 245.922 95.3438C247.344 95.9531 248.547 96.8672 249.531 98.0859C250.531 99.3047 251.297 100.828 251.828 102.656C252.359 104.469 252.625 106.578 252.625 108.984ZM248.359 114.914V108.938C248.359 107.062 248.203 105.453 247.891 104.109C247.578 102.75 247.117 101.641 246.508 100.781C245.898 99.9219 245.148 99.2891 244.258 98.8828C243.367 98.4609 242.336 98.25 241.164 98.25C240.055 98.25 239.055 98.4609 238.164 98.8828C237.289 99.2891 236.539 99.9219 235.914 100.781C235.289 101.641 234.805 102.75 234.461 104.109C234.133 105.453 233.969 107.062 233.969 108.938V114.914C233.969 116.805 234.133 118.43 234.461 119.789C234.805 121.133 235.289 122.242 235.914 123.117C236.555 123.977 237.32 124.617 238.211 125.039C239.102 125.445 240.094 125.648 241.188 125.648C242.359 125.648 243.391 125.445 244.281 125.039C245.188 124.617 245.938 123.977 246.531 123.117C247.141 122.242 247.594 121.133 247.891 119.789C248.203 118.43 248.359 116.805 248.359 114.914ZM283.834 120.375C283.834 119.578 283.741 118.875 283.553 118.266C283.366 117.641 283.038 117.078 282.569 116.578C282.1 116.078 281.444 115.602 280.6 115.148C279.756 114.695 278.686 114.234 277.389 113.766C275.983 113.266 274.709 112.711 273.569 112.102C272.428 111.477 271.452 110.766 270.639 109.969C269.842 109.172 269.225 108.258 268.788 107.227C268.35 106.195 268.131 105.016 268.131 103.688C268.131 102.359 268.358 101.133 268.811 100.008C269.28 98.8828 269.936 97.9062 270.78 97.0781C271.639 96.2344 272.67 95.5781 273.873 95.1094C275.077 94.6406 276.42 94.4062 277.905 94.4062C280.123 94.4062 281.991 94.8984 283.506 95.8828C285.038 96.8516 286.194 98.125 286.975 99.7031C287.756 101.266 288.147 102.938 288.147 104.719H283.834C283.834 103.438 283.623 102.305 283.202 101.32C282.795 100.32 282.155 99.5391 281.28 98.9766C280.42 98.3984 279.295 98.1094 277.905 98.1094C276.655 98.1094 275.623 98.3516 274.811 98.8359C274.014 99.3203 273.42 99.9766 273.03 100.805C272.655 101.633 272.467 102.578 272.467 103.641C272.467 104.359 272.592 105.016 272.842 105.609C273.092 106.188 273.475 106.727 273.991 107.227C274.522 107.727 275.178 108.188 275.959 108.609C276.756 109.031 277.694 109.438 278.772 109.828C280.444 110.375 281.873 110.984 283.061 111.656C284.248 112.328 285.217 113.086 285.967 113.93C286.717 114.758 287.264 115.703 287.608 116.766C287.967 117.812 288.147 119 288.147 120.328C288.147 121.719 287.913 122.977 287.444 124.102C286.991 125.227 286.327 126.188 285.452 126.984C284.577 127.781 283.522 128.398 282.288 128.836C281.053 129.258 279.663 129.469 278.116 129.469C276.772 129.469 275.452 129.25 274.155 128.812C272.873 128.375 271.709 127.719 270.663 126.844C269.616 125.969 268.78 124.891 268.155 123.609C267.53 122.312 267.217 120.812 267.217 119.109H271.53C271.53 120.281 271.702 121.289 272.045 122.133C272.389 122.961 272.866 123.648 273.475 124.195C274.084 124.742 274.78 125.148 275.561 125.414C276.358 125.664 277.209 125.789 278.116 125.789C279.366 125.789 280.413 125.57 281.256 125.133C282.116 124.695 282.756 124.07 283.178 123.258C283.616 122.445 283.834 121.484 283.834 120.375Z" fill="white"/>
</svg>
